<svg fill="#f2f2f2" version="1.1" xmlns="http://www.w3.org/2000/svg" xmlns:xlink="http://www.w3.org/1999/xlink" x="0px" y="0px" viewBox="0 0 1000 1000" enable-background="new 0 0 1000 1000" xml:space="preserve">
<metadata> Svg Vector Icons : http://www.onlinewebfonts.com/icon </metadata>
<g><path d="M507.7,10h-15.3C225.9,10,10,225.9,10,492.3v15.3C10,774,225.9,990,492.3,990h15.3C774,990,990,774,990,507.7v-15.3C990,225.9,774,10,507.7,10L507.7,10z M524.6,595.9c13.3,10,16.2,22.5,10.1,40.9c-3.7,11.4-11.4,20-21,27.5c-22.6,17.6-46.2,33.5-73.4,42.5c-19.1,6.3-38.9,11.1-58.7,14.2c-26.1,4-52.6,5.8-78.9,8.3c-5.4,0.5-10.9-0.2-16.4-0.2c-2.8,0-3.5-1.4-3.7-3.9c-0.7-12.1-1.3-24.1-2.3-36.2c-1.3-15.5-2.9-31-4.7-46.5c-2.5-21.6-5.2-43.1-7.8-64.6c-2.8-22.6-5.7-45.3-8.5-67.9c-2.7-22.2-5.1-44.4-8-66.5c-3.3-25.3-6.9-50.6-10.3-75.9c-4.1-29.9-9.6-59.5-17.4-88.7c-0.3-1.3,0.7-4,1.8-4.5c25.5-10.3,51.2-20.3,76.7-30.6c8.5-3.4,9.3-4.4,9.3,6.3c0.1,45.8,0.3,91.6,1,137.4c0.4,23.8,1.2,47.7,2.9,71.5c2,29,5,58,7.7,87c0.1,1.2,0.7,2.4,0.9,3.2c10.2-0.5,19.7-1.1,29.1-1.2c40.8-0.7,80.7,4.2,118.8,19.5C490.4,575,508.4,583.7,524.6,595.9L524.6,595.9z M374.9,682.1L374.9,682.1c-4-29.1-7.8-57.2-11.7-85.6c15,3.3,78.7,28.4,81.7,32.6C421.7,646.7,398.5,664.2,374.9,682.1L374.9,682.1z M677.4,609.5c1.6,16.6,3.5,33.3,5.2,49.9c0.5,4.8,1,9.6,1.4,14.4c0.2,2.6-1.2,2.9-3.7,2.7c-13.2-1.2-26.4-2.2-40.7-3.4c-12.2-123.3-22.5-248-46.1-371.9c7.7-0.9,15.4-2,23.1-2.6c9-0.8,18-1.1,26.9-1.9c7.5-0.6,10.3,1.4,10.8,8.7c1.4,19.6,2.5,39.2,3.9,58.8c1.8,26.5,3.7,53,5.6,79.5c1.3,19.1,2.6,38.2,4.1,57.3c1.7,20.8,3.7,41.7,5.5,62.5C674.6,578.8,675.8,594.2,677.4,609.5L677.4,609.5L677.4,609.5z M605.8,625.1c2,16.6,4.2,33.1,6.3,49.7c0.6,4.9,1.1,9.8,1.7,15.1c-15.2,1.9-30,3.8-45.6,5.8c-13.1-67-26.1-133.5-39.3-201.2c10.7-1.5,21.1-3.2,31.6-4.4c7.5-0.9,15.1-1,22.6-1.7c4.1-0.4,6.7,1.1,7.3,5.1c1.7,10.6,3.5,21.2,4.8,31.9c2.1,17.7,3.7,35.5,5.6,53.2C602.4,594.1,604,609.6,605.8,625.1L605.8,625.1L605.8,625.1z M761.3,694.6c0,1.6,0,3.2,0,6.5c-14.7,0-28.7,0.1-42.8-0.1c-1.2,0-3.2-2-3.4-3.3c-2.2-22.5-4-45.1-6-67.7c-1.9-21-3.8-41.9-5.7-62.9c-1.9-21.6-3.9-43.2-5.8-64.8c-0.1-1.2-0.4-2.5-0.6-4.4c5.2-0.6,10.2-1.7,15.3-1.7c13.7,0,27.3,0.4,41,0.7c3.5,0.1,5,2.5,5.2,5.7c0.4,6.7,1,13.5,1.1,20.2c0.1,31.8-0.1,63.7,0.2,95.5C760,643.7,760.8,669.1,761.3,694.6L761.3,694.6L761.3,694.6z M585.9,464c-8.8,0.6-17.8,1.2-27,1.8c-3.3-26-6.5-51.4-9.8-77.9c8.5-0.1,16.9-0.3,25.4-0.3c2.8,0,4.1,1.6,4.3,4.6C581.1,415.8,583.5,439.5,585.9,464L585.9,464L585.9,464z M757.5,467.7v4.9c-9.3-0.4-18.2-0.9-28.3-1.4v-75.9c7.3,0,15-0.1,22.7,0c3.9,0.1,5.8,1.6,5.7,6.3C757.3,423.7,757.5,445.7,757.5,467.7L757.5,467.7L757.5,467.7z M547.8,466.9c-7,1.4-13.8,2.8-21,4.2c-4.6-25.2-9.1-50.3-13.7-75.9c8.2-1.2,16.4-2.6,24.6-3.7c3.6-0.5,3,2.7,3.2,4.7c1,8.5,1.8,16.9,2.6,25.4c1.4,13.3,2.9,26.5,4.2,39.8C548,463.2,547.8,465,547.8,466.9L547.8,466.9L547.8,466.9z M719.6,471.2c-7.7,0.8-14.6,1.5-21.8,2.2c-1.9-25.5-3.9-51-5.9-77.9c7.7,0,15.3,0.1,23-0.1c3.5-0.1,4.7,0.6,4.6,4.6c-0.3,10.6,0.1,21.2,0.2,31.8C719.6,445,719.6,458.2,719.6,471.2L719.6,471.2z"/></g>
</svg>